<?xml version="1.0" standalone="no"?><!DOCTYPE svg PUBLIC "-//W3C//DTD SVG 1.1//EN" "http://www.w3.org/Graphics/SVG/1.1/DTD/svg11.dtd"><svg t="1669435319254" class="icon" viewBox="0 0 1024 1024" version="1.1" xmlns="http://www.w3.org/2000/svg" p-id="2705" xmlns:xlink="http://www.w3.org/1999/xlink" width="128" height="128"><path d="M512 64c-175.8 0-318.3 134.6-318.3 300.5 0 222.9 195.5 430.8 280.1 510.3 21.3 20.1 55.7 20.3 77.4 0.6 85.1-77.2 279.2-278.7 279.2-510.9C830.3 198.6 687.8 64 512 64z m0 401.1c-56.9 0-103.1-46.2-103.1-103.1S455.1 258.9 512 258.9c56.9 0 103.1 46.2 103.1 103.1S568.9 465.1 512 465.1z" p-id="2706"></path><path d="M364.5 926.5a147.5 21.5 0 1 0 295 0 147.5 21.5 0 1 0-295 0Z" p-id="2707"></path></svg>