<?xml version="1.0" standalone="no"?><!DOCTYPE svg PUBLIC "-//W3C//DTD SVG 1.1//EN" "http://www.w3.org/Graphics/SVG/1.1/DTD/svg11.dtd"><svg t="1669645917861" class="icon" viewBox="0 0 1126 1024" version="1.1" xmlns="http://www.w3.org/2000/svg" p-id="3787" xmlns:xlink="http://www.w3.org/1999/xlink" width="140.75" height="128"><path d="M742.4 0h-358.4C199.68 0 51.2 148.48 51.2 332.8v358.4C51.2 875.52 199.68 1024 384 1024h358.4C926.72 1024 1075.2 875.52 1075.2 691.2v-358.4C1075.2 148.48 926.72 0 742.4 0z m-83.626667 863.573333H296.96c-20.48 0-37.546667-10.24-37.546667-30.72 0-20.48 17.066667-27.306667 37.546667-27.306666h360.106667c92.16 0 192.853333-117.76 192.853333-209.92s-100.693333-197.973333-192.853333-197.973334H317.44l100.693333 93.866667c15.36 15.36 30.72 39.253333 15.36 54.613333-15.36 15.36-35.84 15.36-49.493333 0l-155.306667-157.013333c-11.946667-11.946667-11.946667-30.72-1.706666-42.666667l155.306666-158.72c15.36-15.36 35.84-15.36 49.493334 0 15.36 15.36 0 39.253333-15.36 54.613334L319.146667 341.333333h339.626666c136.533333 0 247.466667 119.466667 247.466667 254.293334 0 138.24-110.933333 267.946667-247.466667 267.946666z" p-id="3788"></path></svg>