<?xml version="1.0" standalone="no"?><!DOCTYPE svg PUBLIC "-//W3C//DTD SVG 1.1//EN" "http://www.w3.org/Graphics/SVG/1.1/DTD/svg11.dtd"><svg t="1669385088514" class="icon" viewBox="0 0 1024 1024" version="1.1" xmlns="http://www.w3.org/2000/svg" p-id="2685" xmlns:xlink="http://www.w3.org/1999/xlink" width="128" height="128"><path d="M1000.194537 464.372093L552.832411 17.009967c-23.813953-23.813953-61.23588-23.813953-83.348837 0L22.121448 464.372093c-37.421927 37.421927-10.20598 100.358804 42.524917 100.358804h15.30897c32.318937 0 59.534884 27.215947 59.534883 59.534884v340.199335c0 32.318937 27.215947 59.534884 59.534884 59.534884h302.777409c32.318937 0 59.534884-27.215947 59.534883-59.534884V731.428571c0-32.318937 27.215947-59.534884 59.534884-59.534883h78.245847c32.318937 0 59.534884 27.215947 59.534884 59.534883v233.036545c0 32.318937 27.215947 59.534884 59.534884 59.534884h8.504983c32.318937 0 59.534884-27.215947 59.534884-59.534884v-340.199335c0-32.318937 27.215947-59.534884 59.534884-59.534884h11.906976c52.730897 0 79.946844-62.936877 42.524917-100.358804z" p-id="2686"></path></svg>