<?xml version="1.0" standalone="no"?><!DOCTYPE svg PUBLIC "-//W3C//DTD SVG 1.1//EN" "http://www.w3.org/Graphics/SVG/1.1/DTD/svg11.dtd"><svg t="1669690464051" class="icon" viewBox="0 0 1024 1024" version="1.1" xmlns="http://www.w3.org/2000/svg" p-id="10482" xmlns:xlink="http://www.w3.org/1999/xlink" width="128" height="128"><path d="M904.533333 216.177778c-5.688889-56.888889-39.822222-85.333333-96.711111-85.333334H307.2c-62.577778 0-113.777778 45.511111-113.777778 113.777778v489.244445H113.777778v56.888889c0 68.266667 45.511111 108.088889 108.088889 108.088888h483.555555c11.377778 0 28.444444-5.688889 39.822222-5.688888 39.822222-17.066667 62.577778-51.2 62.577778-102.4V386.844444v-17.066666h91.022222c5.688889-56.888889 11.377778-108.088889 5.688889-153.6z m-267.377777 625.777778H227.555556c-39.822222 0-62.577778-22.755556-62.577778-56.888889v-5.688889H625.777778c5.688889 22.755556 11.377778 39.822222 17.066666 62.577778h-5.688888zM307.2 506.311111c0-17.066667 11.377778-22.755556 28.444444-22.755555h159.288889c17.066667 0 28.444444 11.377778 28.444445 22.755555 0 17.066667-11.377778 28.444444-28.444445 28.444445H329.955556c-11.377778-5.688889-22.755556-11.377778-22.755556-28.444445z m352.711111-113.777778H329.955556c-17.066667 0-28.444444-11.377778-28.444445-22.755555 5.688889-17.066667 11.377778-28.444444 28.444445-28.444445h329.955555c22.755556 0 39.822222 11.377778 39.822222 28.444445 0 11.377778-11.377778 22.755556-39.822222 22.755555zM853.333333 312.888889h-39.822222V210.488889c0-11.377778 11.377778-17.066667 17.066667-17.066667 11.377778 0 17.066667 11.377778 17.066666 17.066667v102.4z" p-id="10483"></path></svg>